<svg width="62" height="12" viewBox="0 0 62 12" fill="none" xmlns="http://www.w3.org/2000/svg">
<path d="M59.8338 2.76C60.4098 2.76 60.8778 2.884 61.2378 3.132C61.6058 3.372 61.7898 3.68 61.7898 4.056C61.7898 4.432 61.6778 4.696 61.4538 4.848C61.2298 5 60.9938 5.06 60.7458 5.028C60.7378 4.684 60.6458 4.384 60.4698 4.128C60.2938 3.872 60.0098 3.744 59.6178 3.744C59.2338 3.744 58.9298 3.932 58.7058 4.308C58.4818 4.676 58.3698 5.196 58.3698 5.868C58.3698 7.356 58.9418 8.1 60.0858 8.1C60.6218 8.1 61.1338 7.884 61.6218 7.452C61.7018 7.5 61.7658 7.58 61.8138 7.692C61.8618 7.804 61.8858 7.9 61.8858 7.98C61.8858 8.236 61.6498 8.5 61.1778 8.772C60.7138 9.044 60.1778 9.18 59.5698 9.18C58.7218 9.18 58.0538 8.908 57.5658 8.364C57.0858 7.812 56.8458 7.04 56.8458 6.048C56.8458 5.056 57.1178 4.26 57.6618 3.66C58.2058 3.06 58.9298 2.76 59.8338 2.76Z" fill="black"/>
<path d="M55.6528 9H53.0008V8.904C53.0008 8.464 53.1768 8.228 53.5288 8.196L53.8768 8.172V5.22C53.8768 4.756 53.7848 4.432 53.6008 4.248C53.4168 4.056 53.1608 3.96 52.8328 3.96C52.5048 3.96 52.2368 4.004 52.0288 4.092C51.8208 4.18 51.6048 4.32 51.3808 4.512V8.148L52.2328 8.22C52.2808 8.74 52.1008 9 51.6928 9H49.0168V8.904C49.0168 8.464 49.1928 8.228 49.5448 8.196L49.9168 8.172V3.888L49.4488 3.84C49.1208 3.808 48.9728 3.56 49.0048 3.096L51.1768 2.832L51.2608 3.564H51.2968C51.5928 3.308 51.8768 3.112 52.1488 2.976C52.4288 2.832 52.7568 2.76 53.1328 2.76C53.7488 2.76 54.2688 2.968 54.6928 3.384C55.1248 3.792 55.3408 4.424 55.3408 5.28V8.148L56.1928 8.22C56.2408 8.74 56.0608 9 55.6528 9Z" fill="black"/>
<path d="M46.9152 2.94H48.6312C48.6312 2.94 48.6312 2.972 48.6312 3.036C48.6312 3.452 48.4552 3.688 48.1032 3.744L48.0552 3.756L46.0632 8.592H46.0752C46.0352 8.68 45.9632 8.848 45.8592 9.096C45.7552 9.344 45.6792 9.516 45.6312 9.612C45.5912 9.716 45.5192 9.876 45.4152 10.092C45.3112 10.308 45.2272 10.464 45.1632 10.56C45.0992 10.664 45.0152 10.796 44.9112 10.956C44.8072 11.116 44.7072 11.232 44.6112 11.304C44.5232 11.384 44.4192 11.468 44.2992 11.556C44.0832 11.716 43.8112 11.796 43.4832 11.796C43.1552 11.796 42.8912 11.712 42.6912 11.544C42.4912 11.376 42.3912 11.168 42.3912 10.92C42.3912 10.68 42.4632 10.484 42.6072 10.332C42.7512 10.188 42.9112 10.116 43.0872 10.116C43.2632 10.116 43.3712 10.124 43.4112 10.14C43.3232 10.564 43.4152 10.776 43.6872 10.776C43.9192 10.776 44.1632 10.524 44.4192 10.02C44.6832 9.524 44.8952 9.016 45.0552 8.496L42.9312 3.792H42.8712L42.2112 3.72C42.1872 3.672 42.1912 3.564 42.2232 3.396C42.2952 3.092 42.4712 2.94 42.7512 2.94H45.2352C45.2112 3.236 45.1752 3.42 45.1272 3.492C45.0072 3.628 44.8672 3.712 44.7072 3.744L44.5752 3.768L45.7872 6.768L46.9392 3.78L46.3752 3.72C46.3272 3.2 46.5072 2.94 46.9152 2.94Z" fill="black"/>
<path d="M41.2921 3.204C41.4921 3.38 41.5921 3.608 41.5921 3.888C41.5921 4.168 41.5001 4.384 41.3161 4.536C41.1401 4.688 40.9121 4.744 40.6321 4.704C40.6321 4.408 40.5161 4.16 40.2841 3.96C40.0521 3.752 39.7921 3.648 39.5041 3.648C39.2241 3.648 39.0081 3.704 38.8561 3.816C38.7041 3.92 38.6281 4.06 38.6281 4.236C38.6281 4.412 38.7361 4.572 38.9521 4.716C39.1761 4.852 39.4881 5 39.8881 5.16C40.2961 5.32 40.5881 5.448 40.7641 5.544C40.9401 5.632 41.1281 5.752 41.3281 5.904C41.7121 6.192 41.9041 6.62 41.9041 7.188C41.9041 7.748 41.6761 8.22 41.2201 8.604C40.7641 8.988 40.1561 9.18 39.3961 9.18C38.8361 9.18 38.3441 9.076 37.9201 8.868C37.5041 8.66 37.2961 8.348 37.2961 7.932C37.2961 7.652 37.3961 7.436 37.5961 7.284C37.7961 7.124 38.0321 7.044 38.3041 7.044C38.4081 7.86 38.8721 8.268 39.6961 8.268C40.3601 8.268 40.6921 8.048 40.6921 7.608C40.6921 7.32 40.5161 7.088 40.1641 6.912C39.9721 6.808 39.7401 6.704 39.4681 6.6C39.1961 6.496 38.9801 6.408 38.8201 6.336C38.6681 6.256 38.5001 6.156 38.3161 6.036C38.1321 5.916 37.9801 5.792 37.8601 5.664C37.5961 5.368 37.4641 5.008 37.4641 4.584C37.4641 4.008 37.6961 3.56 38.1601 3.24C38.6241 2.92 39.1801 2.76 39.8281 2.76C40.4761 2.76 40.9641 2.908 41.2921 3.204Z" fill="black"/>
<path d="M36.2742 9H33.4662V8.904C33.4662 8.464 33.6422 8.228 33.9942 8.196L34.3422 8.172H34.3542L33.8742 6.432H31.7142L31.2102 8.148L32.1822 8.22C32.2062 8.268 32.2022 8.376 32.1702 8.544C32.0982 8.848 31.9222 9 31.6422 9H29.2302V8.904C29.2302 8.464 29.4062 8.228 29.7582 8.196L30.2022 8.172L32.5062 0.779996C32.8502 0.747997 33.2542 0.747997 33.7182 0.779996L35.9742 8.148L36.8142 8.22C36.8382 8.268 36.8342 8.376 36.8022 8.544C36.7302 8.848 36.5542 9 36.2742 9ZM31.9422 5.628H33.6582L32.8302 2.592L31.9422 5.628Z" fill="black"/>
<path d="M28.3013 9H25.6493V8.904C25.6493 8.464 25.8252 8.228 26.1772 8.196L26.5252 8.172V5.22C26.5252 4.756 26.4333 4.432 26.2493 4.248C26.0653 4.056 25.8093 3.96 25.4813 3.96C25.1533 3.96 24.8852 4.004 24.6772 4.092C24.4692 4.18 24.2533 4.32 24.0293 4.512V8.148L24.8813 8.22C24.9293 8.74 24.7492 9 24.3412 9H21.6653V8.904C21.6653 8.464 21.8413 8.228 22.1933 8.196L22.5653 8.172V3.888L22.0972 3.84C21.7692 3.808 21.6212 3.56 21.6532 3.096L23.8253 2.832L23.9093 3.564H23.9452C24.2412 3.308 24.5253 3.112 24.7973 2.976C25.0773 2.832 25.4052 2.76 25.7812 2.76C26.3972 2.76 26.9172 2.968 27.3412 3.384C27.7732 3.792 27.9893 4.424 27.9893 5.28V8.148L28.8413 8.22C28.8893 8.74 28.7093 9 28.3013 9Z" fill="black"/>
<path d="M17.2604 6.06V6.192C17.2604 6.84 17.3764 7.324 17.6084 7.644C17.8484 7.956 18.2564 8.112 18.8324 8.112C19.4164 8.112 19.9884 7.892 20.5484 7.452C20.7084 7.572 20.7884 7.76 20.7884 8.016C20.7884 8.264 20.5644 8.52 20.1164 8.784C19.6764 9.048 19.1244 9.18 18.4604 9.18C17.5964 9.18 16.9244 8.928 16.4444 8.424C15.9724 7.912 15.7364 7.14 15.7364 6.108C15.7364 5.068 15.9924 4.252 16.5044 3.66C17.0244 3.06 17.7364 2.76 18.6404 2.76C19.4084 2.76 19.9804 3 20.3564 3.48C20.7404 3.96 20.9244 4.592 20.9084 5.376V6.06H17.2604ZM18.5084 3.72C17.8524 3.72 17.4564 4.224 17.3204 5.232H19.5044C19.4884 4.688 19.3964 4.3 19.2284 4.068C19.0604 3.836 18.8204 3.72 18.5084 3.72Z" fill="black"/>
<path d="M10.6974 3.456C11.2174 2.992 11.8054 2.76 12.4614 2.76C13.1254 2.76 13.6934 2.996 14.1654 3.468C14.6374 3.932 14.8814 4.676 14.8974 5.7C14.9134 6.724 14.6654 7.56 14.1534 8.208C13.6494 8.856 12.9054 9.18 11.9214 9.18C11.4814 9.18 11.1014 9.112 10.7814 8.976V10.764H10.7934L11.6334 10.836C11.6814 11.356 11.5014 11.616 11.0934 11.616H8.41743V11.52C8.41743 11.08 8.59343 10.844 8.94543 10.812L9.31743 10.788V3.888L8.80143 3.828C8.55343 3.796 8.42943 3.556 8.42943 3.108L10.5894 2.832L10.6974 3.456ZM12.0174 8.208C12.9214 8.208 13.3734 7.46 13.3734 5.964C13.3734 5.276 13.2534 4.744 13.0134 4.368C12.7814 3.992 12.4494 3.804 12.0174 3.804C11.5854 3.804 11.1734 3.984 10.7814 4.344V7.728C11.1654 8.048 11.5774 8.208 12.0174 8.208Z" fill="black"/>
<path d="M4.128 1.56C2.696 1.56 1.98 2.652 1.98 4.836C1.98 5.932 2.156 6.768 2.508 7.344C2.868 7.92 3.392 8.212 4.08 8.22C4.808 8.212 5.356 7.932 5.724 7.38C6.1 6.82 6.288 5.996 6.288 4.908C6.288 3.82 6.104 2.992 5.736 2.424C5.376 1.848 4.84 1.56 4.128 1.56ZM0.419998 4.944C0.419998 3.592 0.763998 2.532 1.452 1.764C2.14 0.987998 3.068 0.599998 4.236 0.599998C5.404 0.599998 6.296 0.971999 6.912 1.716C7.536 2.452 7.848 3.496 7.848 4.848C7.848 6.192 7.5 7.252 6.804 8.028C6.116 8.796 5.188 9.18 4.02 9.18C2.852 9.18 1.96 8.812 1.344 8.076C0.727998 7.332 0.419998 6.288 0.419998 4.944Z" fill="black"/>
</svg>
